# Blender 4.5.0
# www.blender.org
mtllib gazebo_cube_3_cube_mesh.mtl
o gazebo_cube_3_cube_mesh
v -0.025000 -0.025000 -0.025000
v -0.025000 -0.025000 0.025000
v -0.025000 0.025000 -0.025000
v -0.025000 0.025000 0.025000
v 0.025000 -0.025000 -0.025000
v 0.025000 -0.025000 0.025000
v 0.025000 0.025000 -0.025000
v 0.025000 0.025000 0.025000
vn -1.0000 -0.0000 -0.0000
vn -0.0000 1.0000 -0.0000
vn 1.0000 -0.0000 -0.0000
vn -0.0000 -1.0000 -0.0000
vn -0.0000 -0.0000 -1.0000
vn -0.0000 -0.0000 1.0000
vt 0.631637 0.290265
vt 0.631637 0.717735
vt 0.531774 0.717735
vt 0.531774 0.290265
vt 0.409642 0.717735
vt 0.409642 0.290265
vt 0.272702 0.717735
vt 0.272703 0.290265
vt 0.721506 0.290265
vt 0.721506 0.717735
vt 0.970439 0.290265
vt 0.970439 0.717735
vt 0.829198 0.717735
vt 0.829198 0.290265
s 1
usemtl gazebo_cube_3_cube_material
f 1/1/1 2/2/1 4/3/1
f 1/1/1 4/3/1 3/4/1
f 3/4/2 4/3/2 8/5/2
f 3/4/2 8/5/2 7/6/2
f 7/6/3 8/5/3 6/7/3
f 7/6/3 6/7/3 5/8/3
f 5/9/4 6/10/4 2/2/4
f 5/9/4 2/2/4 1/1/4
f 3/11/5 7/12/5 5/13/5
f 3/11/5 5/13/5 1/14/5
f 8/14/6 4/13/6 2/10/6
f 8/14/6 2/10/6 6/9/6
