# Blender 4.5.0
# www.blender.org
mtllib isaac_sim_cube_5_cube_mesh.mtl
o isaac_sim_cube_5_cube_mesh
v -0.025000 -0.025000 -0.025000
v -0.025000 -0.025000 0.025000
v -0.025000 0.025000 -0.025000
v -0.025000 0.025000 0.025000
v 0.025000 -0.025000 -0.025000
v 0.025000 -0.025000 0.025000
v 0.025000 0.025000 -0.025000
v 0.025000 0.025000 0.025000
vn -1.0000 -0.0000 -0.0000
vn -0.0000 1.0000 -0.0000
vn 1.0000 -0.0000 -0.0000
vn -0.0000 -1.0000 -0.0000
vn -0.0000 -0.0000 -1.0000
vn -0.0000 -0.0000 1.0000
vt 0.663429 0.259992
vt 0.663429 0.387657
vt 0.491781 0.387657
vt 0.491781 0.259992
vt 0.314836 0.387657
vt 0.314836 0.259992
vt 0.190965 0.387657
vt 0.190966 0.259992
vt 0.816288 0.259992
vt 0.816288 0.387657
vt 0.405802 0.431867
vt 0.405802 0.736290
vt 0.120479 0.736290
vt 0.120479 0.431867
vt 0.405146 0.736290
vt 0.405146 0.431867
vt 0.693729 0.431867
vt 0.693729 0.736290
s 1
usemtl isaac_sim_cube_5_cube_material
f 1/1/1 2/2/1 4/3/1
f 1/1/1 4/3/1 3/4/1
f 3/4/2 4/3/2 8/5/2
f 3/4/2 8/5/2 7/6/2
f 7/6/3 8/5/3 6/7/3
f 7/6/3 6/7/3 5/8/3
f 5/9/4 6/10/4 2/2/4
f 5/9/4 2/2/4 1/1/4
f 3/11/5 7/12/5 5/13/5
f 3/11/5 5/13/5 1/14/5
f 8/15/6 4/16/6 2/17/6
f 8/15/6 2/17/6 6/18/6
