# Blender 4.5.0
# www.blender.org
mtllib f_middle.mtl
o f_middle
v -0.005619 0.005152 -0.005834
v -0.007476 0.006983 -0.002649
v -0.005946 0.008011 -0.003529
v -0.004286 0.008478 -0.004524
v 0.000054 0.008497 -0.006042
v -0.003857 0.008497 0.001266
v -0.003673 0.008487 0.007086
v 0.000054 0.008497 0.009026
v 0.003770 0.008223 0.010332
v 0.008012 0.003497 -0.010293
v 0.007082 0.003497 0.012935
v 0.008012 -0.003496 -0.010293
v 0.007082 -0.003503 0.012935
v 0.007035 0.004295 0.012507
v 0.007814 0.004755 -0.009366
v 0.006718 0.006729 -0.008639
v 0.006283 0.006309 0.011262
v 0.005567 0.007750 -0.008067
v 0.004972 0.007625 0.010693
v 0.003726 0.008427 -0.007323
v -0.008612 0.003429 0.004117
v -0.008901 0.003497 0.001177
v -0.008612 -0.003427 0.004117
v -0.008901 -0.003496 0.001177
v -0.008944 0.003497 -0.001698
v -0.008944 -0.003496 -0.001698
v -0.007418 0.006411 0.005643
v -0.007855 0.004730 0.005585
v -0.004900 0.007462 0.008148
v -0.005182 0.003997 0.008257
v -0.005182 -0.004003 0.008257
v -0.008673 0.003497 -0.002686
v -0.005791 0.003997 -0.005663
v -0.005791 -0.004003 -0.005663
v -0.008673 -0.003496 -0.002686
v -0.005585 -0.004491 0.009261
v -0.005805 0.008117 0.001350
v -0.007426 0.007033 0.001419
v -0.007120 0.007074 0.005024
v -0.005430 0.008024 0.006041
v -0.008508 0.005411 0.001317
v -0.008027 0.005524 0.004480
v -0.008446 0.005666 -0.002006
v -0.005585 0.004492 0.009261
v -0.006406 -0.004753 0.010668
v -0.006941 -0.004760 0.014371
v -0.006457 -0.004760 0.016194
v -0.004159 -0.004760 0.019145
v -0.002508 -0.004760 0.020060
v 0.001212 -0.004760 0.020446
v 0.003015 -0.004760 0.019890
v 0.004606 -0.004760 0.018875
v 0.006719 -0.004760 0.015789
v 0.007090 -0.004760 0.013940
v -0.006406 0.004755 0.010668
v -0.006941 0.004755 0.014371
v -0.006457 0.004755 0.016194
v -0.004159 0.004755 0.019145
v -0.002508 0.004755 0.020060
v 0.001212 0.004755 0.020446
v 0.003015 0.004755 0.019890
v 0.004606 0.004755 0.018875
v 0.006719 0.004755 0.015789
v 0.007090 0.004755 0.013940
v -0.006435 0.005903 0.011389
v -0.006682 0.005903 0.014568
v -0.004639 0.005876 0.017820
v -0.003027 0.005903 0.019578
v 0.000076 0.005903 0.020315
v 0.003174 0.005903 0.019558
v 0.005591 0.005903 0.017477
v 0.006797 0.005903 0.014525
v -0.003317 0.008771 0.011057
v -0.003307 0.008447 0.008898
v -0.003555 0.008997 0.014311
v -0.002573 0.008997 0.016070
v 0.000054 0.008119 0.018421
v 0.003147 0.008997 0.015958
v 0.004983 0.008119 0.013539
v 0.000054 0.008997 0.017215
v 0.003910 0.008997 0.013719
v 0.000059 0.008997 0.011641
v -0.006780 0.006876 -0.009334
v -0.004833 0.006521 -0.005875
v -0.007045 0.004755 -0.007713
v -0.007752 0.004755 -0.009540
v -0.006506 0.006876 -0.014405
v -0.007996 0.004755 -0.011483
v -0.007764 0.004755 -0.013427
v -0.005822 0.006876 -0.016085
v -0.005953 0.004755 -0.016866
v -0.004586 0.006403 -0.017805
v -0.004481 0.004755 -0.018159
v -0.001536 0.005903 -0.018849
v -0.002741 0.004755 -0.019057
v 0.001803 0.005903 -0.019132
v 0.001122 0.004755 -0.019487
v 0.003017 0.004755 -0.018993
v 0.004824 0.005903 -0.017707
v 0.004737 0.004755 -0.018056
v 0.003702 0.006876 -0.017682
v 0.006975 0.005903 -0.015153
v 0.006179 0.004755 -0.016732
v 0.007259 0.004755 -0.015098
v 0.006041 0.008119 -0.011407
v 0.007666 0.005903 -0.011933
v 0.007913 0.004755 -0.013252
v -0.007045 -0.004760 -0.007713
v -0.007752 -0.004760 -0.009540
v -0.007996 -0.004760 -0.011483
v -0.007764 -0.004760 -0.013427
v -0.005953 -0.004760 -0.016866
v -0.004481 -0.004760 -0.018159
v -0.002741 -0.004760 -0.019057
v 0.001122 -0.004760 -0.019487
v 0.003017 -0.004760 -0.018993
v 0.004737 -0.004760 -0.018056
v 0.006179 -0.004760 -0.016732
v 0.007259 -0.004760 -0.015098
v 0.007913 -0.004760 -0.013252
v -0.005376 0.007876 -0.009048
v -0.003526 0.008497 -0.007169
v -0.003567 0.008997 -0.012685
v -0.002184 0.008997 -0.014588
v 0.000054 0.008997 -0.007118
v 0.000054 0.008997 -0.016092
v 0.002292 0.008997 -0.014588
v 0.003777 0.008997 -0.012611
v 0.001668 0.008119 -0.017213
v -0.005859 0.008119 -0.011941
v -0.007101 0.006876 -0.011030
v -0.005569 0.008119 -0.013388
v -0.004820 0.008118 -0.015698
v -0.001411 0.008119 -0.017252
v 0.005505 0.008118 -0.014047
v 0.004650 0.008118 -0.015651
v -0.005873 0.006752 -0.007605
v -0.003674 0.008456 -0.005823
v -0.003806 0.008118 0.016875
v -0.004752 0.008118 0.014437
v -0.003133 0.008118 0.017632
v -0.004697 0.007967 0.011204
v 0.004029 0.008118 0.016507
v 0.003159 0.008118 0.017609
v 0.003159 -0.008117 0.017609
v 0.004029 -0.008117 0.016507
v -0.004697 -0.007965 0.011204
v -0.003133 -0.008117 0.017632
v -0.004752 -0.008117 0.014437
v -0.003806 -0.008117 0.016875
v -0.003674 -0.008454 -0.005823
v -0.005873 -0.006750 -0.007605
v 0.004650 -0.008117 -0.015651
v 0.005505 -0.008117 -0.014047
v -0.001411 -0.008117 -0.017253
v -0.004820 -0.008117 -0.015698
v -0.005569 -0.008117 -0.013388
v -0.007101 -0.006874 -0.011031
v -0.005859 -0.008117 -0.011941
v 0.001668 -0.008117 -0.017213
v 0.003777 -0.009003 -0.012611
v 0.002292 -0.009003 -0.014588
v 0.000054 -0.009003 -0.016092
v 0.000054 -0.009003 -0.007118
v -0.002184 -0.009003 -0.014588
v -0.003567 -0.009003 -0.012685
v -0.003526 -0.008496 -0.007169
v -0.005376 -0.007874 -0.009048
v 0.007666 -0.005901 -0.011933
v 0.006041 -0.008117 -0.011407
v 0.006975 -0.005901 -0.015153
v 0.003702 -0.006874 -0.017682
v 0.004824 -0.005901 -0.017707
v 0.001803 -0.005901 -0.019132
v -0.001536 -0.005901 -0.018849
v -0.004586 -0.006401 -0.017805
v -0.005822 -0.006874 -0.016085
v -0.006506 -0.006874 -0.014405
v -0.004833 -0.006519 -0.005875
v -0.006780 -0.006874 -0.009335
v 0.000059 -0.009003 0.011641
v 0.003910 -0.009003 0.013719
v 0.000054 -0.009003 0.017215
v 0.004983 -0.008117 0.013539
v 0.003147 -0.009003 0.015958
v 0.000054 -0.008117 0.018421
v -0.002573 -0.009003 0.016070
v -0.003555 -0.009003 0.014311
v -0.003307 -0.008446 0.008898
v -0.003317 -0.008769 0.011057
v 0.006797 -0.005901 0.014525
v 0.005591 -0.005901 0.017477
v 0.003174 -0.005901 0.019558
v 0.000076 -0.005901 0.020315
v -0.003027 -0.005901 0.019578
v -0.004639 -0.005874 0.017820
v -0.006682 -0.005901 0.014568
v -0.006435 -0.005901 0.011389
v -0.008446 -0.005665 -0.002006
v -0.008027 -0.005522 0.004480
v -0.008508 -0.005409 0.001317
v -0.005430 -0.008023 0.006041
v -0.007120 -0.007072 0.005024
v -0.007426 -0.007031 0.001419
v -0.005805 -0.008115 0.001350
v -0.004900 -0.007460 0.008148
v -0.007855 -0.004728 0.005585
v -0.007418 -0.006409 0.005643
v 0.003726 -0.008425 -0.007323
v 0.004972 -0.007623 0.010693
v 0.005567 -0.007748 -0.008067
v 0.006283 -0.006307 0.011262
v 0.006718 -0.006727 -0.008639
v 0.007814 -0.004753 -0.009366
v 0.007035 -0.004294 0.012507
v 0.003770 -0.008221 0.010332
v 0.000054 -0.008496 0.009026
v -0.003673 -0.008485 0.007086
v -0.003857 -0.008496 0.001266
v 0.000054 -0.008496 -0.006042
v -0.004286 -0.008476 -0.004524
v -0.005946 -0.008009 -0.003529
v -0.007476 -0.006981 -0.002649
v -0.005619 -0.005150 -0.005835
vn -0.9293 0.3657 -0.0516
vn -0.7413 0.5942 -0.3122
vn -0.5347 0.7822 -0.3197
vn 0.0131 0.9842 0.1766
vn -0.3536 0.9043 -0.2392
vn -0.1020 0.9948 0.0056
vn -0.2337 0.9677 0.0945
vn 0.0419 0.9959 -0.0801
vn 0.2953 0.9505 -0.0965
vn 0.9979 0.0633 0.0106
vn 0.9998 0.0199 0.0047
vn 0.9979 -0.0633 0.0106
vn 0.9998 -0.0200 0.0046
vn 0.9831 0.1811 -0.0272
vn 0.9584 0.2793 0.0587
vn 0.7767 0.6285 0.0413
vn 0.8484 0.5285 -0.0297
vn 0.5513 0.8304 0.0803
vn 0.6000 0.7979 -0.0574
vn 0.2327 0.9692 0.0804
vn -0.9393 0.0592 0.3380
vn -0.9935 0.0994 0.0562
vn -0.9393 -0.0592 0.3380
vn -0.9935 -0.0994 0.0562
vn -0.9875 0.1006 -0.1211
vn -0.9875 -0.1006 -0.1211
vn -0.8111 0.4132 0.4139
vn -0.8371 0.0066 0.5471
vn -0.7478 0.6431 0.1652
vn -0.9850 0.0174 0.1717
vn -0.9850 -0.0176 0.1718
vn -0.8672 0.1009 -0.4877
vn -0.9901 0.0505 -0.1309
vn -0.9901 -0.0508 -0.1310
vn -0.8672 -0.1009 -0.4877
vn -0.3796 0.9250 0.0153
vn -0.7075 0.7061 0.0308
vn -0.9254 0.3743 0.0591
vn -0.9242 0.3297 0.1930
vn -0.7010 0.6901 0.1801
vn -0.8903 0.3775 -0.2548
vn -0.8905 -0.0185 -0.4546
vn -0.8905 0.0185 -0.4547
vn -0.9439 -0.0539 -0.3258
vn -0.9439 0.0539 -0.3258
vn -0.9937 -0.0941 0.0603
vn -0.9938 0.0935 0.0604
vn -0.8646 -0.2138 0.4547
vn -0.8649 0.2125 0.4548
vn -0.6600 -0.1744 0.7308
vn -0.6600 0.1733 0.7310
vn -0.3002 -0.1039 0.9482
vn -0.3003 0.1032 0.9483
vn 0.1407 -0.1441 0.9795
vn 0.1405 0.1431 0.9797
vn 0.3969 -0.1151 0.9106
vn 0.3970 0.1145 0.9107
vn 0.6775 -0.1203 0.7256
vn 0.6776 0.1194 0.7257
vn 0.9192 -0.1169 0.3762
vn 0.9192 0.1160 0.3762
vn 0.9886 -0.1484 0.0267
vn 0.9888 0.1469 0.0278
vn -0.9182 0.3647 -0.1549
vn -0.8801 0.4477 0.1583
vn -0.7088 0.4417 0.5500
vn -0.4222 0.4337 0.7960
vn -0.0127 0.3921 0.9198
vn 0.3933 0.4277 0.8139
vn 0.7665 0.3727 0.5230
vn 0.8831 0.4488 0.1369
vn -0.2774 0.9544 -0.1108
vn -0.2589 0.9646 -0.0510
vn 0.0032 0.7269 0.6867
vn 0.6871 0.7261 0.0257
vn 0.3849 0.9229 -0.0143
vn 0.3066 0.9258 0.2210
vn 0.0288 0.9925 -0.1184
vn -0.2064 0.9558 0.2096
vn 0.0010 0.9365 0.3508
vn -0.3496 0.9362 0.0356
vn -0.9525 0.1879 0.2398
vn -0.8649 0.2188 0.4518
vn -0.7601 0.5884 0.2759
vn -0.7444 0.4718 -0.4726
vn -0.7879 0.1060 -0.6066
vn -0.9434 0.1924 -0.2702
vn -0.8076 0.5333 -0.2518
vn -0.4831 0.4415 -0.7561
vn -0.5567 0.0710 -0.8277
vn 0.3764 0.1329 -0.9169
vn 0.0494 0.1355 -0.9895
vn 0.1480 0.4418 -0.8848
vn 0.5724 0.4314 -0.6973
vn 0.5717 0.1013 -0.8142
vn 0.3977 0.6083 -0.6869
vn 0.8064 0.4315 -0.4045
vn 0.7545 0.1371 -0.6418
vn 0.8931 0.0988 -0.4388
vn 0.9012 0.4329 -0.0199
vn 0.6211 0.7829 0.0369
vn 0.9700 0.1724 -0.1714
vn -0.8645 -0.2197 0.4520
vn -0.9524 -0.1885 0.2397
vn -0.9805 0.1963 -0.0036
vn -0.9804 -0.1968 -0.0037
vn -0.9433 -0.1930 -0.2701
vn -0.7879 -0.1064 -0.6066
vn -0.5566 -0.0713 -0.8277
vn -0.2744 0.1625 -0.9478
vn -0.2743 -0.1633 -0.9477
vn 0.0493 -0.1363 -0.9894
vn 0.3764 -0.1338 -0.9167
vn 0.5717 -0.1019 -0.8141
vn 0.7544 -0.1380 -0.6417
vn 0.8931 -0.0994 -0.4387
vn 0.9698 -0.1734 -0.1713
vn -0.5151 0.8259 0.2294
vn -0.3893 0.9096 0.1451
vn -0.2115 0.9771 -0.0214
vn -0.1194 0.9795 -0.1622
vn 0.0103 0.9694 0.2452
vn -0.0015 0.9449 -0.3275
vn 0.1286 0.9779 -0.1647
vn 0.1468 0.7798 -0.6085
vn 0.2145 0.9762 -0.0328
vn -0.8247 0.5648 0.0307
vn -0.5547 0.8321 0.0030
vn -0.5594 0.8169 -0.1405
vn -0.4404 0.8147 -0.3773
vn -0.1216 0.4608 -0.8792
vn -0.1324 0.7592 -0.6373
vn -0.4624 0.8660 0.1905
vn 0.4570 0.7790 -0.4294
vn 0.5821 0.7867 -0.2057
vn -0.8035 0.5878 -0.0940
vn -0.6835 0.5816 0.4410
vn -0.4492 0.8857 -0.1175
vn -0.6407 0.7650 -0.0649
vn -0.6722 0.7343 0.0950
vn -0.5981 0.6911 0.4058
vn -0.3991 0.7139 0.5754
vn 0.3738 0.7273 0.5756
vn 0.6322 0.6981 0.3362
vn 0.8061 -0.4321 -0.4044
vn 0.9011 -0.4331 -0.0197
vn -0.4830 -0.4418 -0.7560
vn -0.1214 -0.4615 -0.8788
vn 0.1480 -0.4423 -0.8846
vn 0.3082 -0.9250 0.2223
vn 0.3745 -0.7262 0.5766
vn 0.0010 -0.9357 0.3528
vn 0.0032 -0.7258 0.6879
vn -0.3997 -0.7128 0.5763
vn -0.2077 -0.9552 0.2109
vn 0.2161 -0.9758 -0.0329
vn 0.1295 -0.9776 -0.1658
vn 0.4577 -0.7782 -0.4300
vn 0.5831 -0.7859 -0.2060
vn -0.6733 -0.7333 0.0949
vn -0.9181 -0.3647 -0.1549
vn -0.6407 -0.7650 -0.0649
vn -0.8798 -0.4482 0.1582
vn -0.2782 -0.9540 -0.1118
vn -0.3517 -0.9354 0.0352
vn -0.5990 -0.6899 0.4064
vn -0.7084 -0.4427 0.5497
vn -0.4221 -0.4342 0.7958
vn 0.7665 -0.3727 0.5230
vn 0.3931 -0.4283 0.8136
vn 0.6334 -0.6967 0.3368
vn 0.6883 -0.7250 0.0257
vn -0.7478 -0.6431 0.1652
vn 0.0285 -0.9924 -0.1201
vn 0.3869 -0.9220 -0.0147
vn -0.9291 -0.3662 -0.0512
vn -0.7597 -0.5888 0.2759
vn -0.4492 -0.8857 -0.1174
vn -0.8035 -0.5878 -0.0940
vn -0.3900 -0.9092 0.1459
vn -0.3536 -0.9043 -0.2392
vn 0.0131 -0.9838 0.1787
vn -0.5155 -0.8255 0.2297
vn -0.6835 -0.5816 0.4410
vn -0.5347 -0.7822 -0.3197
vn 0.9584 -0.2793 0.0587
vn 0.7767 -0.6285 0.0413
vn -0.3796 -0.9250 0.0153
vn -0.7010 -0.6901 0.1801
vn -0.7075 -0.7061 0.0308
vn -0.4624 -0.8660 0.1905
vn -0.1020 -0.9948 0.0056
vn -0.2337 -0.9677 0.0945
vn 0.6219 -0.7822 0.0371
vn 0.3977 -0.6083 -0.6869
vn 0.1472 -0.7789 -0.6096
vn -0.2130 -0.9768 -0.0216
vn 0.0103 -0.9687 0.2481
vn 0.2335 -0.9690 0.0812
vn -0.0015 -0.9442 -0.3294
vn -0.5557 -0.8314 0.0029
vn -0.1203 -0.9792 -0.1633
vn -0.4410 -0.8141 -0.3778
vn -0.1327 -0.7582 -0.6384
vn -0.8243 -0.5653 0.0307
vn -0.8073 -0.5338 -0.2517
vn -0.9242 -0.3297 0.1930
vn -0.8370 -0.0063 0.5472
vn -0.8111 -0.4132 0.4139
vn -0.2589 -0.9646 -0.0510
vn 0.0418 -0.9958 -0.0810
vn -0.5605 -0.8161 -0.1408
vn -0.8903 -0.3775 -0.2548
vn 0.5513 -0.8304 0.0803
vn -0.7442 -0.4721 -0.4725
vn -0.7413 -0.5942 -0.3122
vn 0.5723 -0.4319 -0.6971
vn 0.2959 -0.9502 -0.0973
vn 0.6000 -0.7979 -0.0574
vn 0.8484 -0.5285 -0.0297
vn 0.8829 -0.4493 0.1367
vn -0.0128 -0.3923 0.9198
vn 0.9830 -0.1813 -0.0273
vn -0.9254 -0.3743 0.0591
s 1
usemtl black
f 1//1 2//2 3//3
f 5//4 4//5 6//6
f 5//4 6//6 7//7
f 5//4 7//7 8//8
f 9//9 5//4 8//8
f 10//10 11//11 12//12
f 13//13 12//12 11//11
f 14//14 11//11 10//10
f 14//14 10//10 15//15
f 15//15 16//16 14//14
f 17//17 14//14 16//16
f 16//16 18//18 17//17
f 19//19 17//17 18//18
f 9//9 19//19 18//18
f 18//18 20//20 9//9
f 20//20 5//4 9//9
f 21//21 22//22 23//23
f 24//24 23//23 22//22
f 22//22 25//25 24//24
f 26//26 24//24 25//25
f 27//27 28//28 29//29
f 30//30 29//29 28//28
f 28//28 21//21 30//30
f 30//30 21//21 23//23
f 31//31 30//30 23//23
f 2//2 1//1 32//32
f 1//1 33//33 32//32
f 34//34 35//35 32//32
f 33//33 34//34 32//32
f 6//6 4//5 3//3
f 37//36 6//6 3//3
f 37//36 3//3 2//2
f 38//37 37//36 2//2
f 41//38 42//39 39//40
f 38//37 41//38 39//40
f 38//37 2//2 43//41
f 41//38 38//37 43//41
f 43//41 25//25 41//38
f 21//21 42//39 41//38
f 41//38 22//22 21//21
f 41//38 25//25 22//22
f 36//42 44//43 30//30
f 44//43 45//44 55//45
f 45//44 46//46 55//45
f 56//47 55//45 46//46
f 46//46 47//48 56//47
f 57//49 56//47 47//48
f 47//48 48//50 57//49
f 58//51 57//49 48//50
f 48//50 49//52 58//51
f 59//53 58//51 49//52
f 49//52 50//54 59//53
f 60//55 59//53 50//54
f 50//54 51//56 60//55
f 61//57 60//55 51//56
f 51//56 52//58 61//57
f 62//59 61//57 52//58
f 52//58 53//60 62//59
f 63//61 62//59 53//60
f 53//60 54//62 63//61
f 64//63 63//61 54//62
f 13//13 64//63 54//62
f 64//63 13//13 11//11
f 64//63 11//11 14//14
f 29//29 44//43 55//45
f 65//64 29//29 55//45
f 65//64 55//45 56//47
f 66//65 65//64 56//47
f 56//47 57//49 66//65
f 67//66 66//65 57//49
f 67//66 57//49 58//51
f 68//67 67//66 58//51
f 58//51 59//53 68//67
f 69//68 68//67 59//53
f 59//53 60//55 69//68
f 69//68 60//55 61//57
f 70//69 69//68 61//57
f 61//57 62//59 70//69
f 71//70 70//69 62//59
f 62//59 63//61 71//70
f 72//71 71//70 63//61
f 63//61 64//63 72//71
f 72//71 64//63 14//14
f 72//71 14//14 17//17
f 73//72 74//73 29//29
f 68//67 69//68 77//74
f 69//68 70//69 77//74
f 71//70 72//71 79//75
f 72//71 17//17 79//75
f 19//19 79//75 17//17
f 81//76 78//77 79//75
f 9//9 81//76 79//75
f 79//75 19//19 9//9
f 9//9 8//8 82//78
f 9//9 82//78 81//76
f 76//79 80//80 82//78
f 75//81 76//79 82//78
f 73//72 8//8 74//73
f 8//8 73//72 82//78
f 75//81 82//78 73//72
f 86//82 85//83 83//84
f 90//85 91//86 89//87
f 87//88 90//85 89//87
f 90//85 92//89 91//86
f 93//90 91//86 92//89
f 98//91 97//92 96//93
f 99//94 100//95 98//91
f 96//93 99//94 98//91
f 99//94 96//93 101//96
f 101//96 102//97 99//94
f 103//98 100//95 99//94
f 99//94 102//97 103//98
f 104//99 103//98 102//97
f 106//100 102//97 105//101
f 10//10 107//102 106//100
f 35//35 26//26 32//32
f 85//83 34//34 33//33
f 34//34 85//83 108//103
f 85//83 86//82 108//103
f 109//104 108//103 86//82
f 86//82 88//105 109//104
f 110//106 109//104 88//105
f 88//105 89//87 110//106
f 111//107 110//106 89//87
f 89//87 91//86 111//107
f 112//108 111//107 91//86
f 91//86 93//90 112//108
f 113//109 112//108 93//90
f 93//90 95//110 113//109
f 114//111 113//109 95//110
f 95//110 97//92 114//111
f 115//112 114//111 97//92
f 97//92 98//91 115//112
f 116//113 115//112 98//91
f 98//91 100//95 116//113
f 117//114 116//113 100//95
f 100//95 103//98 117//114
f 118//115 117//114 103//98
f 103//98 104//99 118//115
f 119//116 118//115 104//99
f 104//99 107//102 119//116
f 120//117 119//116 107//102
f 107//102 10//10 120//117
f 12//12 120//117 10//10
f 2//2 32//32 43//41
f 121//118 122//119 123//120
f 124//121 123//120 125//122
f 126//123 124//121 125//122
f 25//25 32//32 26//26
f 127//124 129//125 126//123
f 105//101 20//20 18//18
f 105//101 128//126 20//20
f 20//20 125//122 5//4
f 131//127 83//84 130//128
f 87//88 131//127 130//128
f 130//128 132//129 87//88
f 132//129 133//130 87//88
f 90//85 87//88 133//130
f 92//89 90//85 133//130
f 94//131 92//89 134//132
f 134//132 129//125 94//131
f 96//93 94//131 129//125
f 101//96 96//93 129//125
f 105//101 18//18 106//100
f 16//16 106//100 18//18
f 25//25 43//41 32//32
f 121//118 123//120 130//128
f 132//129 130//128 123//120
f 123//120 133//130 132//129
f 123//120 124//121 133//130
f 124//121 126//123 134//132
f 129//125 134//132 126//123
f 7//7 74//73 8//8
f 7//7 29//29 74//73
f 31//31 36//42 30//30
f 7//7 40//133 29//29
f 27//27 29//29 40//133
f 40//133 39//40 27//27
f 42//39 27//27 39//40
f 28//28 27//27 42//39
f 42//39 21//21 28//28
f 30//30 44//43 29//29
f 87//88 89//87 131//127
f 88//105 131//127 89//87
f 86//82 131//127 88//105
f 83//84 131//127 86//82
f 92//89 133//130 134//132
f 124//121 134//132 133//130
f 83//84 121//118 130//128
f 125//122 127//124 126//123
f 125//122 128//126 127//124
f 20//20 128//126 125//122
f 5//4 125//122 122//119
f 122//119 125//122 123//120
f 127//124 136//134 129//125
f 136//134 101//96 129//125
f 101//96 136//134 102//97
f 135//135 102//97 136//134
f 102//97 135//135 105//101
f 135//135 128//126 105//101
f 6//6 40//133 7//7
f 6//6 37//36 40//133
f 37//36 39//40 40//133
f 37//36 38//37 39//40
f 10//10 106//100 15//15
f 15//15 106//100 16//16
f 3//3 4//5 84//136
f 1//1 3//3 84//136
f 137//137 1//1 84//136
f 83//84 1//1 137//137
f 83//84 137//137 121//118
f 137//137 84//136 121//118
f 84//136 122//119 121//118
f 122//119 138//138 5//4
f 138//138 4//5 5//4
f 4//5 138//138 84//136
f 138//138 122//119 84//136
f 1//1 83//84 85//83
f 1//1 85//83 33//33
f 78//77 81//76 82//78
f 78//77 82//78 80//80
f 65//64 142//139 29//29
f 142//139 73//72 29//29
f 140//140 73//72 142//139
f 139//141 75//81 140//140
f 75//81 139//141 76//79
f 141//142 76//79 139//141
f 141//142 68//67 77//74
f 70//69 144//143 77//74
f 143//144 78//77 144//143
f 78//77 143//144 79//75
f 143//144 71//70 79//75
f 71//70 143//144 144//143
f 71//70 144//143 70//69
f 68//67 141//142 67//66
f 141//142 139//141 67//66
f 67//66 139//141 66//65
f 139//141 140//140 66//65
f 73//72 140//140 75//81
f 66//65 140//140 65//64
f 140//140 142//139 65//64
f 128//126 135//135 136//134
f 128//126 136//134 127//124
f 76//79 141//142 80//80
f 77//74 80//80 141//142
f 77//74 144//143 80//80
f 78//77 80//80 144//143
f 94//131 96//93 97//92
f 94//131 97//92 95//110
f 92//89 94//131 95//110
f 92//89 95//110 93//90
f 102//97 107//102 104//99
f 102//97 106//100 107//102
f 171//145 120//117 169//146
f 171//145 119//116 120//117
f 176//147 113//109 114//111
f 176//147 114//111 175//148
f 175//148 114//111 115//112
f 175//148 115//112 174//149
f 185//150 145//151 183//152
f 186//153 183//152 145//151
f 186//153 148//154 183//152
f 187//155 183//152 148//154
f 161//156 162//157 153//158
f 161//156 153//158 154//159
f 149//160 198//161 147//162
f 197//163 198//161 149//160
f 190//164 188//165 149//160
f 150//166 197//163 149//160
f 196//167 197//163 150//166
f 148//154 196//167 150//166
f 195//168 196//167 148//154
f 192//169 193//170 145//151
f 192//169 145//151 146//171
f 146//171 184//172 192//169
f 185//150 184//172 146//171
f 146//171 145//151 185//150
f 193//170 186//153 145//151
f 148//154 186//153 195//168
f 148//154 150//166 187//155
f 188//165 187//155 150//166
f 150//166 149//160 188//165
f 149//160 147//162 190//164
f 147//162 206//173 190//164
f 198//161 206//173 147//162
f 185//150 183//152 181//174
f 185//150 181//174 182//175
f 224//176 34//34 108//103
f 224//176 108//103 180//177
f 151//178 179//179 167//180
f 221//181 179//179 151//178
f 151//178 220//182 221//181
f 167//180 220//182 151//178
f 179//179 168//183 167//180
f 152//184 168//183 179//179
f 180//177 168//183 152//184
f 152//184 224//176 180//177
f 179//179 224//176 152//184
f 224//176 179//179 222//185
f 222//185 179//179 221//181
f 214//186 213//187 169//146
f 12//12 214//186 169//146
f 205//188 203//189 204//190
f 205//188 202//191 203//189
f 219//192 202//191 205//188
f 219//192 218//193 202//191
f 154//159 170//194 161//156
f 171//145 170//194 154//159
f 154//159 153//158 171//145
f 172//195 171//145 153//158
f 153//158 160//196 172//195
f 162//157 160//196 153//158
f 167//180 166//197 164//198
f 220//182 167//180 164//198
f 209//199 164//198 161//156
f 164//198 162//157 161//156
f 164//198 163//200 162//157
f 180//177 159//201 168//183
f 165//202 156//203 155//204
f 176//147 155//204 156//203
f 180//177 109//104 158//205
f 109//104 110//106 158//205
f 110//106 111//107 158//205
f 178//206 158//205 111//107
f 31//31 206//173 36//42
f 200//207 207//208 23//23
f 207//208 200//207 208//209
f 200//207 203//189 208//209
f 202//191 208//209 203//189
f 208//209 202//191 206//173
f 218//193 206//173 202//191
f 218//193 189//210 206//173
f 218//193 217//211 189//210
f 160//196 163//200 155//204
f 165//202 155//204 163//200
f 166//197 156//203 165//202
f 166//197 157//212 156//203
f 157//212 166//197 159//201
f 168//183 159//201 166//197
f 26//26 35//35 199//213
f 213//187 211//214 169//146
f 170//194 169//146 211//214
f 172//195 160//196 174//149
f 174//149 160//196 175//148
f 155//204 175//148 160//196
f 175//148 155//204 176//147
f 176//147 156//203 177//215
f 177//215 156//203 178//206
f 157//212 178//206 156//203
f 159//201 178//206 157//212
f 178//206 159//201 158//205
f 158//205 159//201 180//177
f 209//199 220//182 164//198
f 170//194 209//199 161//156
f 170//194 211//214 209//199
f 162//157 163//200 160//196
f 163//200 164//198 165//202
f 165//202 164//198 166//197
f 168//183 166//197 167//180
f 223//216 199//213 35//35
f 12//12 169//146 120//117
f 169//146 170//194 171//145
f 119//116 171//145 118//115
f 173//217 118//115 171//145
f 118//115 173//217 117//114
f 172//195 173//217 171//145
f 173//217 172//195 174//149
f 174//149 116//113 173//217
f 173//217 116//113 117//114
f 116//113 174//149 115//112
f 113//109 176//147 112//108
f 177//215 112//108 176//147
f 178//206 111//107 177//215
f 177//215 111//107 112//108
f 109//104 180//177 108//103
f 188//165 190//164 181//174
f 217//211 181//174 190//164
f 190//164 189//210 217//211
f 188//165 181//174 187//155
f 187//155 181//174 183//152
f 216//218 182//175 181//174
f 216//218 181//174 217//211
f 184//172 216//218 210//219
f 216//218 184//172 182//175
f 182//175 184//172 185//150
f 210//219 212//220 184//172
f 191//221 184//172 212//220
f 192//169 184//172 191//221
f 194//222 186//153 193//170
f 195//168 186//153 194//222
f 190//164 206//173 189//210
f 191//221 212//220 215//223
f 191//221 215//223 54//62
f 53//60 191//221 54//62
f 191//221 53//60 192//169
f 52//58 192//169 53//60
f 192//169 52//58 193//170
f 51//56 193//170 52//58
f 193//170 51//56 194//222
f 194//222 51//56 50//54
f 49//52 194//222 50//54
f 194//222 49//52 195//168
f 48//50 195//168 49//52
f 195//168 48//50 196//167
f 196//167 48//50 47//48
f 196//167 47//48 197//163
f 46//46 197//163 47//48
f 197//163 46//46 198//161
f 198//161 46//46 45//44
f 198//161 45//44 206//173
f 206//173 45//44 36//42
f 54//62 215//223 13//13
f 201//224 24//24 26//26
f 201//224 23//23 24//24
f 23//23 201//224 200//207
f 199//213 201//224 26//26
f 201//224 199//213 204//190
f 204//190 199//213 223//216
f 204//190 203//189 201//224
f 201//224 203//189 200//207
f 204//190 223//216 205//188
f 205//188 223//216 222//185
f 205//188 222//185 219//192
f 219//192 222//185 221//181
f 224//176 35//35 34//34
f 35//35 224//176 223//216
f 207//208 31//31 23//23
f 31//31 207//208 206//173
f 208//209 206//173 207//208
f 209//199 216//218 220//182
f 211//214 216//218 209//199
f 216//218 211//214 210//219
f 210//219 211//214 212//220
f 213//187 212//220 211//214
f 212//220 213//187 215//223
f 214//186 215//223 213//187
f 215//223 214//186 12//12
f 215//223 12//12 13//13
f 216//218 217//211 220//182
f 220//182 217//211 218//193
f 220//182 218//193 219//192
f 220//182 219//192 221//181
f 224//176 222//185 223//216
f 36//42 45//44 44//43
